<svg width="24" height="24" viewBox="0 0 24 24" fill="none" xmlns="http://www.w3.org/2000/svg">
<path fill-rule="evenodd" clip-rule="evenodd" d="M8.08101 10.292C7.98034 10.329 7.89509 10.3989 7.83902 10.4904C7.78295 10.5818 7.75935 10.6895 7.77201 10.796C7.79101 10.967 7.83901 11.019 9.64601 12.826C11.597 14.778 11.615 14.794 11.89 14.717C12.074 14.666 15.664 11.077 15.717 10.891C15.7388 10.8071 15.7383 10.7189 15.7157 10.6352C15.693 10.5515 15.6489 10.4751 15.5877 10.4136C15.5266 10.3522 15.4504 10.3077 15.3668 10.2846C15.2832 10.2615 15.1951 10.2606 15.111 10.282C15.014 10.309 14.563 10.736 13.38 11.919C12.5 12.8 11.763 13.52 11.741 13.52C11.719 13.52 10.971 12.791 10.08 11.9C9.18801 11.009 8.42801 10.28 8.39201 10.28C8.35172 10.2794 8.3117 10.2733 8.27301 10.262C8.20757 10.2574 8.14192 10.2676 8.08101 10.292Z" fill="#344854"/>
</svg>
