<svg width="24" height="24" viewBox="0 0 24 24" fill="none" xmlns="http://www.w3.org/2000/svg">
<path fill-rule="evenodd" clip-rule="evenodd" d="M8.08089 10.292C7.98022 10.329 7.89497 10.3989 7.8389 10.4904C7.78283 10.5818 7.75923 10.6895 7.77189 10.796C7.79089 10.967 7.83889 11.019 9.64589 12.826C11.5969 14.778 11.6149 14.794 11.8899 14.717C12.0739 14.666 15.6639 11.077 15.7169 10.891C15.7387 10.8071 15.7382 10.7189 15.7156 10.6352C15.6929 10.5515 15.6488 10.4751 15.5876 10.4136C15.5264 10.3522 15.4503 10.3077 15.3667 10.2846C15.2831 10.2615 15.1949 10.2606 15.1109 10.282C15.0139 10.309 14.5629 10.736 13.3799 11.919C12.4999 12.8 11.7629 13.52 11.7409 13.52C11.7189 13.52 10.9709 12.791 10.0799 11.9C9.18789 11.009 8.42789 10.28 8.39189 10.28C8.3516 10.2794 8.31157 10.2733 8.27289 10.262C8.20745 10.2574 8.1418 10.2676 8.08089 10.292Z" fill="#418AF7"/>
</svg>
