<svg width="24" height="24" viewBox="0 0 24 24" fill="none" xmlns="http://www.w3.org/2000/svg">
<path fill-rule="evenodd" clip-rule="evenodd" d="M10.4699 8.47001C10.6105 8.32956 10.8012 8.25067 10.9999 8.25067C11.1987 8.25067 11.3893 8.32956 11.5299 8.47001L15.0299 11.97C15.1704 12.1106 15.2492 12.3013 15.2492 12.5C15.2492 12.6988 15.1704 12.8894 15.0299 13.03L11.5299 16.53C11.4612 16.6037 11.3784 16.6628 11.2864 16.7038C11.1944 16.7448 11.0951 16.7668 10.9944 16.7686C10.8937 16.7704 10.7937 16.7519 10.7003 16.7141C10.6069 16.6764 10.5221 16.6203 10.4509 16.549C10.3797 16.4778 10.3235 16.393 10.2858 16.2996C10.2481 16.2062 10.2295 16.1062 10.2313 16.0055C10.2331 15.9048 10.2551 15.8055 10.2961 15.7135C10.3371 15.6215 10.3962 15.5387 10.4699 15.47L13.4399 12.5L10.4699 9.53001C10.3295 9.38939 10.2506 9.19876 10.2506 9.00001C10.2506 8.80126 10.3295 8.61064 10.4699 8.47001Z" fill="#344854"/>
</svg>
