<svg width="24" height="24" viewBox="0 0 24 24" fill="none" xmlns="http://www.w3.org/2000/svg">
<path fill-rule="evenodd" clip-rule="evenodd" d="M11.56 2.02299L11.22 2.08399C10.8721 2.15215 10.5354 2.26897 10.22 2.43099C9.16002 2.95999 8.41702 3.88699 8.11202 5.05999C8.03802 5.34399 8.02602 5.52899 8.01102 6.68699L7.99302 7.99399L6.78602 8.00899C5.66002 8.02399 5.56402 8.03099 5.34002 8.11399C5.05786 8.2169 4.8016 8.38022 4.58914 8.5925C4.37668 8.80478 4.21316 9.06092 4.11002 9.34299L4.02002 9.57999L4.00802 13.38C4.00002 15.957 4.01002 17.304 4.04002 17.566C4.13002 18.355 4.42002 19.136 4.88102 19.824C5.15202 20.229 5.77102 20.848 6.17602 21.119C6.84233 21.5665 7.6032 21.8536 8.39902 21.958C8.85602 22.014 15.144 22.014 15.601 21.958C16.4602 21.8412 17.2775 21.5149 17.981 21.008C18.5259 20.5973 18.982 20.0807 19.3221 19.4892C19.6622 18.8977 19.8792 18.2435 19.96 17.566C19.99 17.304 20 15.957 19.992 13.38L19.98 9.57999L19.89 9.34299C19.7874 9.05943 19.6234 8.80204 19.4097 8.58923C19.196 8.37643 18.938 8.21346 18.654 8.11199C18.437 8.03099 18.332 8.02399 17.214 8.00899L16.007 7.99399L15.989 6.68699C15.973 5.50999 15.963 5.34599 15.884 5.04199C15.7488 4.57304 15.5446 4.12682 15.278 3.71799C14.76 2.95499 13.868 2.34399 12.94 2.11599C12.632 2.04099 11.783 1.98299 11.56 2.02299ZM12.478 4.06199C13.15 4.21499 13.75 4.80099 13.927 5.47699C13.983 5.69399 13.996 5.93599 13.998 6.86999L14 7.99999H10V6.89799C10 5.64299 10.034 5.39799 10.265 5.01399C10.74 4.21999 11.582 3.85799 12.478 4.06199ZM8.00002 11.5V13H10V9.99999H14V13H16V9.99999H18.002L17.99 13.77C17.978 17.253 17.972 17.558 17.906 17.78C17.7583 18.2876 17.4838 18.7492 17.1084 19.1213C16.7329 19.4934 16.2689 19.7638 15.76 19.907C15.517 19.975 15.265 19.98 12 19.98C8.73502 19.98 8.48302 19.975 8.24002 19.907C7.73114 19.7638 7.26711 19.4934 6.89166 19.1213C6.5162 18.7492 6.2417 18.2876 6.09402 17.78C6.02802 17.558 6.02202 17.253 6.01002 13.77L5.99802 9.99999H8.00002V11.5Z" fill="white"/>
</svg>
