<svg width="24" height="24" viewBox="0 0 24 24" fill="none" xmlns="http://www.w3.org/2000/svg">
<path fill-rule="evenodd" clip-rule="evenodd" d="M1 7.5C1 6.70435 1.31607 5.94129 1.87868 5.37868C2.44129 4.81607 3.20435 4.5 4 4.5H20C20.7956 4.5 21.5587 4.81607 22.1213 5.37868C22.6839 5.94129 23 6.70435 23 7.5V16.5C23 17.2956 22.6839 18.0587 22.1213 18.6213C21.5587 19.1839 20.7956 19.5 20 19.5H4C3.20435 19.5 2.44129 19.1839 1.87868 18.6213C1.31607 18.0587 1 17.2956 1 16.5V7.5ZM4 6.5C3.73478 6.5 3.48043 6.60536 3.29289 6.79289C3.10536 6.98043 3 7.23478 3 7.5V8.5H21V7.5C21 7.23478 20.8946 6.98043 20.7071 6.79289C20.5196 6.60536 20.2652 6.5 20 6.5H4ZM21 10.5H3V16.5C3 16.7652 3.10536 17.0196 3.29289 17.2071C3.48043 17.3946 3.73478 17.5 4 17.5H20C20.2652 17.5 20.5196 17.3946 20.7071 17.2071C20.8946 17.0196 21 16.7652 21 16.5V10.5ZM13 15C13 15.1326 12.9473 15.2598 12.8536 15.3536C12.7598 15.4473 12.6326 15.5 12.5 15.5H5.5C5.36739 15.5 5.24021 15.4473 5.14645 15.3536C5.05268 15.2598 5 15.1326 5 15V14C5 13.8674 5.05268 13.7402 5.14645 13.6464C5.24021 13.5527 5.36739 13.5 5.5 13.5H12.5C12.6326 13.5 12.7598 13.5527 12.8536 13.6464C12.9473 13.7402 13 13.8674 13 14V15Z" fill="white"/>
</svg>
