<svg width="24" height="24" viewBox="0 0 24 24" fill="none" xmlns="http://www.w3.org/2000/svg">
<path fill-rule="evenodd" clip-rule="evenodd" d="M4 3.5C4 3.10218 4.15804 2.72064 4.43934 2.43934C4.72064 2.15804 5.10218 2 5.5 2H18.5C18.8978 2 19.2794 2.15804 19.5607 2.43934C19.842 2.72064 20 3.10218 20 3.5V13.562C20 13.6946 19.9473 13.8218 19.8536 13.9156C19.7598 14.0093 19.6326 14.062 19.5 14.062H18.5C18.3674 14.062 18.2402 14.0093 18.1464 13.9156C18.0527 13.8218 18 13.6946 18 13.562V4H6V20H10.513C10.6456 20 10.7728 20.0527 10.8666 20.1464C10.9603 20.2402 11.013 20.3674 11.013 20.5V21.5C11.013 21.6326 10.9603 21.7598 10.8666 21.8536C10.7728 21.9473 10.6456 22 10.513 22H5.5C5.10218 22 4.72064 21.842 4.43934 21.5607C4.15804 21.2794 4 20.8978 4 20.5V3.5ZM15.5 10C15.6326 10 15.7598 9.94732 15.8536 9.85355C15.9473 9.75979 16 9.63261 16 9.5V8.5C16 8.36739 15.9473 8.24021 15.8536 8.14645C15.7598 8.05268 15.6326 8 15.5 8H8.5C8.36739 8 8.24021 8.05268 8.14645 8.14645C8.05268 8.24021 8 8.36739 8 8.5V9.5C8 9.63261 8.05268 9.75979 8.14645 9.85355C8.24021 9.94732 8.36739 10 8.5 10H15.5ZM15.5 14C15.6326 14 15.7598 13.9473 15.8536 13.8536C15.9473 13.7598 16 13.6326 16 13.5V12.5C16 12.3674 15.9473 12.2402 15.8536 12.1464C15.7598 12.0527 15.6326 12 15.5 12H8.5C8.36739 12 8.24021 12.0527 8.14645 12.1464C8.05268 12.2402 8 12.3674 8 12.5V13.5C8 13.6326 8.05268 13.7598 8.14645 13.8536C8.24021 13.9473 8.36739 14 8.5 14H15.5ZM21.554 16.56C21.6474 16.4663 21.6999 16.3393 21.6999 16.207C21.6999 16.0747 21.6474 15.9477 21.554 15.854L20.847 15.147C20.8006 15.1004 20.7454 15.0635 20.6846 15.0383C20.6239 15.0131 20.5588 15.0001 20.493 15.0001C20.4272 15.0001 20.3621 15.0131 20.3014 15.0383C20.2406 15.0635 20.1854 15.1004 20.139 15.147L15.5 19.785L13.56 17.845C13.4663 17.7516 13.3393 17.6991 13.207 17.6991C13.0747 17.6991 12.9477 17.7516 12.854 17.845L12.147 18.553C12.0533 18.6468 12.0006 18.7739 12.0006 18.9065C12.0006 19.0391 12.0533 19.1662 12.147 19.26L14.439 21.553C14.5783 21.6924 14.7437 21.803 14.9258 21.8784C15.1078 21.9538 15.3029 21.9927 15.5 21.9927C15.6971 21.9927 15.8922 21.9538 16.0742 21.8784C16.2563 21.803 16.4217 21.6924 16.561 21.553L21.554 16.56V16.56Z" fill="white"/>
</svg>
