<svg width="24" height="24" viewBox="0 0 24 24" fill="none" xmlns="http://www.w3.org/2000/svg">
<path fill-rule="evenodd" clip-rule="evenodd" d="M6.03011 5.79C5.66111 6.159 5.36011 6.479 5.36011 6.5C5.36011 6.522 6.58811 7.768 8.09011 9.27L10.8201 12L8.09011 14.73C6.58811 16.232 5.36011 17.478 5.36011 17.5C5.36011 17.521 5.66111 17.841 6.03011 18.21L6.69911 18.88L9.45011 16.13L12.2001 13.38L14.9501 16.13L17.7001 18.88L18.3901 18.19L19.0801 17.5L16.3301 14.75L13.5801 12L16.3301 9.25L19.0801 6.5L18.3901 5.81L17.7001 5.12L14.9501 7.87L12.2001 10.62L9.45011 7.87L6.69911 5.12L6.03011 5.79Z" fill="#344854"/>
</svg>
