<svg width="24" height="24" viewBox="0 0 24 24" fill="none" xmlns="http://www.w3.org/2000/svg">
<path d="M12 21C9.5 21 7.375 20.125 5.625 18.375C3.875 16.625 3 14.5 3 12C3 9.5 3.875 7.375 5.625 5.625C7.375 3.875 9.5 3 12 3C12.1333 3 12.275 3.00417 12.425 3.0125C12.575 3.02083 12.7667 3.03333 13 3.05C12.4 3.58333 11.9333 4.24167 11.6 5.025C11.2667 5.80833 11.1 6.63333 11.1 7.5C11.1 9 11.625 10.275 12.675 11.325C13.725 12.375 15 12.9 16.5 12.9C17.3667 12.9 18.1917 12.7458 18.975 12.4375C19.7583 12.1292 20.4167 11.7 20.95 11.15C20.9667 11.35 20.9792 11.5125 20.9875 11.6375C20.9958 11.7625 21 11.8833 21 12C21 14.5 20.125 16.625 18.375 18.375C16.625 20.125 14.5 21 12 21ZM12 19.5C13.8167 19.5 15.4 18.9375 16.75 17.8125C18.1 16.6875 18.9417 15.3667 19.275 13.85C18.8583 14.0333 18.4125 14.1708 17.9375 14.2625C17.4625 14.3542 16.9833 14.4 16.5 14.4C14.5833 14.4 12.9542 13.7292 11.6125 12.3875C10.2708 11.0458 9.6 9.41667 9.6 7.5C9.6 7.1 9.64167 6.67083 9.725 6.2125C9.80833 5.75417 9.95833 5.23333 10.175 4.65C8.54167 5.1 7.1875 6.0125 6.1125 7.3875C5.0375 8.7625 4.5 10.3 4.5 12C4.5 14.0833 5.22917 15.8542 6.6875 17.3125C8.14583 18.7708 9.91667 19.5 12 19.5Z" fill="#344854"/>
</svg>
