<svg width="24" height="24" viewBox="0 0 24 24" fill="none" xmlns="http://www.w3.org/2000/svg">
<path fill-rule="evenodd" clip-rule="evenodd" d="M3 16V6H14V16H9.83C9.6234 15.4145 9.24026 14.9074 8.7334 14.5488C8.22654 14.1901 7.62091 13.9975 7 13.9975C6.37909 13.9975 5.77346 14.1901 5.2666 14.5488C4.75974 14.9074 4.3766 15.4145 4.17 16H3ZM14.17 18H9.83C9.6234 18.5855 9.24026 19.0926 8.7334 19.4512C8.22654 19.8099 7.62091 20.0025 7 20.0025C6.37909 20.0025 5.77346 19.8099 5.2666 19.4512C4.75974 19.0926 4.3766 18.5855 4.17 18H2.5C2.10218 18 1.72064 17.842 1.43934 17.5607C1.15804 17.2794 1 16.8978 1 16.5V5.5C1 5.10218 1.15804 4.72064 1.43934 4.43934C1.72064 4.15804 2.10218 4 2.5 4H14.5C14.8978 4 15.2794 4.15804 15.5607 4.43934C15.842 4.72064 16 5.10218 16 5.5V7H18.75C18.9829 7 19.2125 7.05422 19.4208 7.15836C19.6291 7.2625 19.8103 7.41371 19.95 7.6L22.7 11.267C22.895 11.527 23 11.842 23 12.167V16.5C23 16.8978 22.842 17.2794 22.5607 17.5607C22.2794 17.842 21.8978 18 21.5 18H19.83C19.6234 18.5855 19.2403 19.0926 18.7334 19.4512C18.2265 19.8099 17.6209 20.0025 17 20.0025C16.3791 20.0025 15.7735 19.8099 15.2666 19.4512C14.7597 19.0926 14.3766 18.5855 14.17 18V18ZM16 14.17V9H18.5L21 12.333V16H19.83C19.6987 15.6283 19.4955 15.2861 19.232 14.993C18.9685 14.6999 18.6498 14.4615 18.2941 14.2916C17.9384 14.1217 17.5528 14.0235 17.1591 14.0026C16.7655 13.9817 16.3716 14.0386 16 14.17V14.17ZM16 17C16 17.2652 16.1054 17.5196 16.2929 17.7071C16.4804 17.8946 16.7348 18 17 18C17.2652 18 17.5196 17.8946 17.7071 17.7071C17.8946 17.5196 18 17.2652 18 17C18 16.7348 17.8946 16.4804 17.7071 16.2929C17.5196 16.1054 17.2652 16 17 16C16.7348 16 16.4804 16.1054 16.2929 16.2929C16.1054 16.4804 16 16.7348 16 17ZM7 16C6.73478 16 6.48043 16.1054 6.29289 16.2929C6.10536 16.4804 6 16.7348 6 17C6 17.2652 6.10536 17.5196 6.29289 17.7071C6.48043 17.8946 6.73478 18 7 18C7.26522 18 7.51957 17.8946 7.70711 17.7071C7.89464 17.5196 8 17.2652 8 17C8 16.7348 7.89464 16.4804 7.70711 16.2929C7.51957 16.1054 7.26522 16 7 16Z" fill="white"/>
</svg>
