<svg width="40" height="40" viewBox="0 0 40 40" fill="none" xmlns="http://www.w3.org/2000/svg">
<g clip-path="url(#clip0_463_160)">
<path d="M13.379 32.8329C13.379 32.9984 13.1935 33.1307 12.9597 33.1307C12.6935 33.1555 12.5081 33.0232 12.5081 32.8329C12.5081 32.6675 12.6935 32.5352 12.9274 32.5352C13.1694 32.5104 13.379 32.6427 13.379 32.8329ZM10.871 32.4607C10.8145 32.6262 10.9758 32.8164 11.2177 32.866C11.4274 32.9487 11.6694 32.866 11.7177 32.7006C11.7661 32.5352 11.6129 32.3449 11.371 32.2705C11.1613 32.2126 10.9274 32.2953 10.871 32.4607ZM14.4355 32.3201C14.2016 32.378 14.0403 32.5352 14.0645 32.7254C14.0887 32.8908 14.2984 32.9984 14.5403 32.9405C14.7742 32.8826 14.9355 32.7254 14.9113 32.56C14.8871 32.4028 14.6694 32.2953 14.4355 32.3201ZM19.7419 0.625C8.55645 0.625 0 9.33454 0 20.8067C0 29.9794 5.62903 37.8287 13.6694 40.5913C14.7016 40.7815 15.0645 40.1281 15.0645 39.5905C15.0645 39.0777 15.0403 36.2489 15.0403 34.512C15.0403 34.512 9.39516 35.7527 8.20968 32.0472C8.20968 32.0472 7.29032 29.6403 5.96774 29.0199C5.96774 29.0199 4.12097 27.7214 6.09677 27.7462C6.09677 27.7462 8.10484 27.9116 9.20968 29.8801C10.9758 33.0728 13.9355 32.1547 15.0887 31.6088C15.2742 30.2854 15.7984 29.3673 16.379 28.8214C11.871 28.3086 7.32258 27.6386 7.32258 19.6818C7.32258 17.4072 7.93548 16.2658 9.22581 14.8101C9.01613 14.2724 8.33064 12.0558 9.43548 9.19393C11.121 8.65631 15 11.4272 15 11.4272C16.6129 10.964 18.3468 10.7241 20.0645 10.7241C21.7823 10.7241 23.5161 10.964 25.129 11.4272C25.129 11.4272 29.0081 8.64804 30.6935 9.19393C31.7984 12.064 31.1129 14.2724 30.9032 14.8101C32.1935 16.2741 32.9839 17.4155 32.9839 19.6818C32.9839 27.6635 28.2339 28.3003 23.7258 28.8214C24.4677 29.4748 25.0968 30.7155 25.0968 32.6592C25.0968 35.4466 25.0726 38.8957 25.0726 39.5739C25.0726 40.1116 25.4435 40.765 26.4677 40.5748C34.5323 37.8287 40 29.9794 40 20.8067C40 9.33454 30.9274 0.625 19.7419 0.625ZM7.83871 29.1523C7.73387 29.235 7.75806 29.4252 7.89516 29.5824C8.02419 29.7147 8.20968 29.7726 8.31452 29.6651C8.41935 29.5824 8.39516 29.3921 8.25806 29.235C8.12903 29.1026 7.94355 29.0447 7.83871 29.1523ZM6.96774 28.4823C6.91129 28.5898 6.99194 28.7222 7.15323 28.8049C7.28226 28.8876 7.44355 28.8628 7.5 28.747C7.55645 28.6395 7.47581 28.5071 7.31452 28.4244C7.15323 28.3748 7.02419 28.3996 6.96774 28.4823ZM9.58065 31.4268C9.45161 31.5344 9.5 31.7825 9.68548 31.9397C9.87097 32.1299 10.1048 32.1547 10.2097 32.0224C10.3145 31.9148 10.2661 31.6667 10.1048 31.5096C9.92742 31.3193 9.68548 31.2945 9.58065 31.4268ZM8.66129 30.211C8.53226 30.2937 8.53226 30.5087 8.66129 30.699C8.79032 30.8892 9.00806 30.9719 9.1129 30.8892C9.24194 30.7817 9.24194 30.5666 9.1129 30.3764C9 30.1862 8.79032 30.1035 8.66129 30.211Z" fill="#DADADA"/>
</g>
<defs>
<clipPath id="clip0_463_160">
<rect width="40" height="40" fill="white"/>
</clipPath>
</defs>
</svg>
