<svg width="40" height="40" viewBox="0 0 40 40" fill="none" xmlns="http://www.w3.org/2000/svg">
<path d="M37.1429 0H2.84821C1.27679 0 0 1.29464 0 2.88393V37.1161C0 38.7054 1.27679 40 2.84821 40H37.1429C38.7143 40 40 38.7054 40 37.1161V2.88393C40 1.29464 38.7143 0 37.1429 0ZM12.0893 34.2857H6.16071V15.1964H12.0982V34.2857H12.0893ZM9.125 12.5893C7.22321 12.5893 5.6875 11.0446 5.6875 9.15179C5.6875 7.25893 7.22321 5.71429 9.125 5.71429C11.0179 5.71429 12.5625 7.25893 12.5625 9.15179C12.5625 11.0536 11.0268 12.5893 9.125 12.5893V12.5893ZM34.3125 34.2857H28.3839V25C28.3839 22.7857 28.3393 19.9375 25.3036 19.9375C22.2143 19.9375 21.7411 22.3482 21.7411 24.8393V34.2857H15.8125V15.1964H21.5V17.8036H21.5804C22.375 16.3036 24.3125 14.7232 27.1964 14.7232C33.1964 14.7232 34.3125 18.6786 34.3125 23.8214V34.2857V34.2857Z" fill="black" fill-opacity="0.25"/>
</svg>
