<svg width="89" height="18" viewBox="0 0 89 18" fill="none" xmlns="http://www.w3.org/2000/svg">
<g clip-path="url(#clip0_393_167)">
<path d="M32.3748 0.666447H35.7078L41.3751 11.0792L47.0426 0.666456H50.3033V17.7765H47.5841V4.66294L42.6146 13.7435H40.0635L35.094 4.66294V17.7765H32.3748V0.666447Z" fill="white"/>
<path d="M59.0751 18.0843C57.8157 18.0843 56.7087 17.8011 55.7542 17.2349C54.7994 16.6686 54.0554 15.8844 53.522 14.8822C52.9886 13.88 52.7217 12.7312 52.7219 11.4358C52.7219 10.1241 52.9826 8.96303 53.504 7.95265C54.0254 6.94249 54.7493 6.15214 55.676 5.5816C56.6024 5.01144 57.6674 4.72628 58.8706 4.72612C60.0659 4.72612 61.0946 5.01332 61.9571 5.58769C62.8192 6.16223 63.483 6.96683 63.9483 8.00151C64.4135 9.03633 64.6462 10.2503 64.6463 11.6435V12.4011H55.4172C55.5857 13.4442 56.0008 14.2651 56.6627 14.8638C57.3244 15.4627 58.1606 15.7621 59.1715 15.7621C59.9816 15.7621 60.6795 15.6399 61.2652 15.3954C61.8506 15.151 62.4002 14.7803 62.9136 14.2833L64.3576 16.0798C62.9216 17.4162 61.1607 18.0843 59.0751 18.0843ZM61.0606 7.93423C60.4909 7.34362 59.7449 7.04826 58.8225 7.04815C57.9241 7.04815 57.1719 7.34966 56.5665 7.95265C55.9606 8.55559 55.5776 9.36628 55.4172 10.3847H62.0353C61.9549 9.34177 61.6301 8.52494 61.0606 7.93423Z" fill="white"/>
<path d="M67.9432 7.2931H65.4404V5.03209H67.9432V1.29235H70.5663V5.03209H74.3687V7.2931H70.5663V13.0249C70.5663 13.9781 70.7268 14.6584 71.0476 15.0658C71.3683 15.4734 71.9179 15.6771 72.6961 15.6769C73.0409 15.6769 73.3336 15.6626 73.5746 15.6341C73.8152 15.6057 74.0799 15.567 74.3687 15.518V17.7545C74.0391 17.8513 73.7034 17.925 73.364 17.9745C72.9755 18.0327 72.5833 18.0612 72.1907 18.0601C69.359 18.0601 67.9431 16.4876 67.9432 13.3427V7.2931Z" fill="white"/>
<path d="M88.0386 17.7787H85.4636V15.9943C85.0063 16.6625 84.4248 17.1778 83.7189 17.5403C83.0129 17.9028 82.2107 18.0841 81.3123 18.0843C80.2054 18.0843 79.2246 17.797 78.3703 17.2225C77.5159 16.6482 76.8441 15.8579 76.3548 14.8517C75.8655 13.8454 75.6208 12.6945 75.6208 11.3991C75.6208 10.0955 75.8696 8.94259 76.3668 7.94032C76.8642 6.93828 77.552 6.15203 78.4305 5.5816C79.3089 5.01144 80.3176 4.72628 81.4567 4.72612C82.3149 4.72612 83.085 4.89521 83.767 5.23338C84.4396 5.56387 85.0222 6.05694 85.4636 6.66934V5.03172H88.0386V17.7787ZM85.4154 9.49255C85.1346 8.76739 84.6913 8.19499 84.0859 7.77534C83.48 7.35578 82.7801 7.14601 81.9862 7.14601C80.863 7.14601 79.9685 7.52892 79.3029 8.29478C78.6369 9.06068 78.304 10.0954 78.3041 11.3991C78.3041 12.711 78.625 13.7498 79.2667 14.5156C79.9083 15.2815 80.7788 15.6644 81.8779 15.6644C82.6879 15.6644 83.4099 15.4525 84.0437 15.0288C84.6772 14.6053 85.1346 14.035 85.4154 13.3178V9.49255Z" fill="white"/>
<path d="M7.75947 0.089489C7.75089 0.089489 7.74236 0.0895198 7.73379 0.0895647L7.69873 3.03169C7.70675 3.0316 7.71477 3.03153 7.72281 3.03153H7.72283C9.62945 3.03153 11.1083 4.55842 14.3227 10.0577L14.5187 10.3925L14.5315 10.4144L16.3309 7.67224L16.3184 7.65106C15.8949 6.95153 15.4881 6.30791 15.098 5.72022C14.6455 5.03928 14.2127 4.43096 13.7928 3.88786C11.6664 1.13791 9.88761 0.089489 7.75947 0.089489Z" fill="url(#paint0_linear_393_167)"/>
<path d="M7.73378 0.0895647C5.59532 0.100739 3.70477 1.50524 2.33962 3.65443C2.33562 3.66072 2.33162 3.66702 2.32764 3.67334L4.83351 5.05865C4.83758 5.05238 4.84165 5.04612 4.84574 5.03987C5.64291 3.82081 6.63495 3.04328 7.69872 3.03169C7.70674 3.0316 7.71476 3.03153 7.7228 3.03153L7.75946 0.089489C7.75088 0.089489 7.74235 0.0895198 7.73378 0.0895647Z" fill="url(#paint1_linear_393_167)"/>
<path d="M2.33934 3.65614C2.33536 3.66242 2.33136 3.66872 2.32736 3.67504C1.43031 5.09334 0.761587 6.8338 0.400188 8.7114C0.398622 8.71953 0.397062 8.72766 0.395508 8.73581L3.21075 9.41049C3.21223 9.40234 3.21371 9.39417 3.21519 9.38603C3.51611 7.73592 4.08902 6.2055 4.83323 5.06035C4.83728 5.05408 4.84137 5.04782 4.84546 5.04157L2.33934 3.65614Z" fill="url(#paint2_linear_393_167)"/>
<path d="M3.21534 9.38698L0.400318 8.71235C0.398752 8.72048 0.397192 8.72863 0.395638 8.73675C0.198572 9.76937 0.0983153 10.8186 0.0962117 11.8704C0.0961952 11.8789 0.0961888 11.8875 0.0961923 11.8959L2.98335 12.1583C2.98312 12.1498 2.98288 12.1413 2.98268 12.1328C2.98125 12.0717 2.98053 12.0099 2.98051 11.9473C2.98196 11.0967 3.05906 10.2479 3.21089 9.41143C3.21236 9.40329 3.21384 9.39514 3.21534 9.38698Z" fill="url(#paint3_linear_393_167)"/>
<path d="M3.07115 13.0691C3.01936 12.7668 2.99001 12.461 2.98335 12.1542C2.98312 12.1457 2.98288 12.1373 2.98268 12.1287L0.0962117 11.8664C0.0961952 11.8749 0.0961888 11.8834 0.0961923 11.8919V11.8935C0.0961923 12.5482 0.14994 13.1611 0.254397 13.7273C0.255908 13.7355 0.257394 13.7435 0.258926 13.7517L3.07552 13.0936C3.07404 13.0855 3.07259 13.0773 3.07115 13.0691Z" fill="url(#paint4_linear_393_167)"/>
<path d="M3.72892 14.5905C3.41476 14.2422 3.19242 13.7398 3.07552 13.0972C3.07404 13.0891 3.07261 13.0809 3.07117 13.0727L0.254395 13.7309C0.255903 13.7391 0.257389 13.7471 0.258923 13.7553C0.471824 14.8906 0.889362 15.8369 1.48731 16.5527C1.49263 16.559 1.49796 16.5654 1.50332 16.5718L3.74572 14.6088C3.74012 14.6028 3.73448 14.5966 3.72892 14.5905Z" fill="url(#paint5_linear_393_167)"/>
<path d="M12.0738 6.44999C10.3764 9.09435 9.34818 10.7529 9.34818 10.7529C7.08711 14.3529 6.30489 15.1598 5.04603 15.1598C4.52074 15.1598 4.08191 14.9698 3.74571 14.6067C3.74011 14.6006 3.73449 14.5945 3.72893 14.5883L1.4873 16.5505C1.49262 16.5569 1.49796 16.5632 1.50331 16.5696C2.32894 17.5471 3.49432 18.0895 4.93604 18.0895C7.11725 18.0895 8.686 17.045 11.4748 12.0936C11.4748 12.0936 12.6373 10.0084 13.4371 8.57212C12.9417 7.75971 12.4909 7.0564 12.0738 6.44999Z" fill="#0082FB"/>
<path d="M15.0992 2.27842C15.0935 2.2846 15.0876 2.2909 15.0819 2.29709C14.6362 2.77944 14.2084 3.31811 13.7922 3.88963C14.2122 4.43276 14.6457 5.04225 15.0982 5.72318C15.6315 4.88714 16.1293 4.21002 16.6172 3.69103C16.623 3.68489 16.6287 3.67891 16.6345 3.67279L15.0992 2.27842Z" fill="url(#paint6_linear_393_167)"/>
<path d="M23.3399 2.01687C22.1561 0.802204 20.7447 0.089489 19.2359 0.089489C17.6448 0.089489 16.3064 0.975064 15.0993 2.27609C15.0936 2.28225 15.0877 2.28855 15.082 2.29475L16.6174 3.68868C16.6231 3.68254 16.6288 3.67656 16.6346 3.67046C17.4298 2.83032 18.1995 2.41085 19.0526 2.41085H19.0524C19.9708 2.41085 20.8304 2.84989 21.5748 3.61956C21.5806 3.62559 21.5864 3.63157 21.5922 3.63764L23.3575 2.03495C23.3517 2.02888 23.3457 2.02291 23.3399 2.01687Z" fill="#0082FB"/>
<path d="M26.7619 11.4799C26.6956 7.57983 25.3519 4.09324 23.3575 2.03425C23.3515 2.02818 23.3457 2.0222 23.3397 2.01617L21.5747 3.61886C21.5805 3.62489 21.5863 3.63087 21.5922 3.63694C23.0925 5.20237 24.1218 8.11412 24.2154 11.479C24.2155 11.4875 24.2157 11.496 24.2161 11.5044L26.7622 11.5053C26.7622 11.4968 26.762 11.4884 26.7619 11.4799Z" fill="url(#paint7_linear_393_167)"/>
<path d="M26.7624 11.508C26.7624 11.4995 26.7622 11.4911 26.7621 11.4826L24.2155 11.4818C24.2157 11.4902 24.2159 11.4987 24.2162 11.5072C24.2203 11.6651 24.2224 11.824 24.2224 11.9838C24.2224 12.9013 24.0876 13.6429 23.8131 14.1783C23.8091 14.1863 23.8048 14.1942 23.8008 14.2021L25.6993 16.2077C25.7041 16.2004 25.7087 16.1932 25.7134 16.1859C26.4026 15.1056 26.7645 13.605 26.7645 11.7852C26.7645 11.6926 26.7638 11.6002 26.7624 11.508Z" fill="url(#paint8_linear_393_167)"/>
<path d="M23.8132 14.1742C23.8091 14.1821 23.8049 14.1901 23.8008 14.198C23.5634 14.6493 23.2245 14.9503 22.7815 15.0819L23.647 17.8525C23.7615 17.813 23.8731 17.7686 23.9817 17.7194C24.0141 17.7047 24.0464 17.6896 24.0783 17.6741C24.0966 17.6651 24.1149 17.6561 24.1331 17.6469C24.7054 17.3571 25.1891 16.9298 25.5803 16.3793C25.6042 16.3457 25.6278 16.3117 25.6509 16.2772C25.6673 16.2529 25.6835 16.2284 25.6994 16.2036C25.7042 16.1963 25.7088 16.1891 25.7135 16.1818L23.8132 14.1742Z" fill="url(#paint9_linear_393_167)"/>
<path d="M22.23 15.157C21.9399 15.157 21.6838 15.1132 21.4331 14.9994L20.5469 17.8359C21.045 18.0087 21.5764 18.0866 22.1691 18.0866C22.715 18.0866 23.2161 18.0037 23.6705 17.8437L22.8052 15.0741C22.6187 15.1309 22.4248 15.1588 22.23 15.157Z" fill="url(#paint10_linear_393_167)"/>
<path d="M20.4567 14.19C20.4512 14.1836 20.4457 14.1772 20.4401 14.1707L18.4009 16.3248C18.4067 16.331 18.4123 16.3372 18.418 16.3434C19.1266 17.1103 19.8033 17.5861 20.5705 17.8472L21.4561 15.0128C21.1328 14.8717 20.82 14.616 20.4567 14.19Z" fill="url(#paint11_linear_393_167)"/>
<path d="M20.4404 14.1686C19.8287 13.4461 19.072 12.2432 17.8819 10.298L16.3307 7.67054L16.3183 7.64936L14.5186 10.3908L14.5314 10.4127L15.6304 12.2905C16.6957 14.1012 17.5636 15.4112 18.4012 16.3227C18.407 16.3289 18.4126 16.3351 18.4183 16.3412L20.4568 14.1879C20.4513 14.1815 20.4458 14.1751 20.4404 14.1686Z" fill="url(#paint12_linear_393_167)"/>
</g>
<defs>
<linearGradient id="paint0_linear_393_167" x1="15.1348" y1="9.29923" x2="9.04287" y2="1.43993" gradientUnits="userSpaceOnUse">
<stop offset="0.0006" stop-color="#0867DF"/>
<stop offset="0.4539" stop-color="#0668E1"/>
<stop offset="0.8591" stop-color="#0064E0"/>
</linearGradient>
<linearGradient id="paint1_linear_393_167" x1="3.50469" y1="4.14879" x2="7.64664" y2="1.05283" gradientUnits="userSpaceOnUse">
<stop offset="0.1323" stop-color="#0064DF"/>
<stop offset="0.9988" stop-color="#0064E0"/>
</linearGradient>
<linearGradient id="paint2_linear_393_167" x1="1.76849" y1="8.78483" x2="3.45603" y2="4.60238" gradientUnits="userSpaceOnUse">
<stop offset="0.0147" stop-color="#0072EC"/>
<stop offset="0.6881" stop-color="#0064DF"/>
</linearGradient>
<linearGradient id="paint3_linear_393_167" x1="1.54552" y1="11.8202" x2="1.74159" y2="9.25536" gradientUnits="userSpaceOnUse">
<stop offset="0.0731" stop-color="#007CF6"/>
<stop offset="0.9943" stop-color="#0072EC"/>
</linearGradient>
<linearGradient id="paint4_linear_393_167" x1="1.65006" y1="13.2097" x2="1.50986" y2="12.1824" gradientUnits="userSpaceOnUse">
<stop offset="0.0731" stop-color="#007FF9"/>
<stop offset="1" stop-color="#007CF6"/>
</linearGradient>
<linearGradient id="paint5_linear_393_167" x1="1.57024" y1="13.4832" x2="2.43944" y2="15.2983" gradientUnits="userSpaceOnUse">
<stop offset="0.0731" stop-color="#007FF9"/>
<stop offset="1" stop-color="#0082FB"/>
</linearGradient>
<linearGradient id="paint6_linear_393_167" x1="14.5946" y1="4.65044" x2="15.7379" y2="3.09362" gradientUnits="userSpaceOnUse">
<stop offset="0.2799" stop-color="#007FF8"/>
<stop offset="0.9141" stop-color="#0082FB"/>
</linearGradient>
<linearGradient id="paint7_linear_393_167" x1="23.1121" y1="2.6078" x2="25.5246" y2="11.3453" gradientUnits="userSpaceOnUse">
<stop stop-color="#0082FB"/>
<stop offset="0.9995" stop-color="#0081FA"/>
</linearGradient>
<linearGradient id="paint8_linear_393_167" x1="26.0219" y1="11.702" x2="24.5012" y2="14.7275" gradientUnits="userSpaceOnUse">
<stop offset="0.0619" stop-color="#0081FA"/>
<stop offset="1" stop-color="#0080F9"/>
</linearGradient>
<linearGradient id="paint9_linear_393_167" x1="23.3598" y1="16.3562" x2="24.7599" y2="15.4173" gradientUnits="userSpaceOnUse">
<stop stop-color="#027AF3"/>
<stop offset="1" stop-color="#0080F9"/>
</linearGradient>
<linearGradient id="paint10_linear_393_167" x1="21.1851" y1="16.5431" x2="23.1117" y2="16.5431" gradientUnits="userSpaceOnUse">
<stop stop-color="#0377EF"/>
<stop offset="0.9994" stop-color="#0279F1"/>
</linearGradient>
<linearGradient id="paint11_linear_393_167" x1="19.5099" y1="15.4685" x2="20.906" y2="16.2771" gradientUnits="userSpaceOnUse">
<stop offset="0.0019" stop-color="#0471E9"/>
<stop offset="1" stop-color="#0377EF"/>
</linearGradient>
<linearGradient id="paint12_linear_393_167" x1="15.285" y1="9.36328" x2="19.807" y2="14.9609" gradientUnits="userSpaceOnUse">
<stop offset="0.2765" stop-color="#0867DF"/>
<stop offset="1" stop-color="#0471E9"/>
</linearGradient>
<clipPath id="clip0_393_167">
<rect width="89" height="18" fill="white"/>
</clipPath>
</defs>
</svg>
