<svg width="89" height="18" viewBox="0 0 89 18" fill="none" xmlns="http://www.w3.org/2000/svg">
<g clip-path="url(#clip0_169_158)">
<path d="M32.375 0.666447H35.708L41.3753 11.0792L47.0428 0.666456H50.3036V17.7765H47.5843V4.66294L42.6148 13.7435H40.0637L35.0943 4.66294V17.7765H32.375V0.666447Z" fill="#1C2B33"/>
<path d="M59.0752 18.0843C57.8158 18.0843 56.7088 17.8011 55.7544 17.2349C54.7995 16.6686 54.0555 15.8844 53.5221 14.8822C52.9887 13.88 52.7219 12.7312 52.722 11.4358C52.722 10.1241 52.9827 8.96303 53.5041 7.95265C54.0255 6.94249 54.7495 6.15214 55.6761 5.5816C56.6025 5.01144 57.6676 4.72628 58.8707 4.72612C60.066 4.72612 61.0947 5.01332 61.9572 5.58769C62.8193 6.16223 63.4831 6.96683 63.9485 8.00151C64.4136 9.03633 64.6463 10.2503 64.6465 11.6435V12.4011H55.4173C55.5858 13.4442 56.001 14.2651 56.6628 14.8638C57.3245 15.4627 58.1607 15.7621 59.1716 15.7621C59.9818 15.7621 60.6796 15.6399 61.2653 15.3954C61.8507 15.151 62.4003 14.7803 62.9138 14.2833L64.3577 16.0798C62.9217 17.4162 61.1608 18.0843 59.0752 18.0843ZM61.0607 7.93423C60.491 7.34362 59.745 7.04826 58.8226 7.04815C57.9242 7.04815 57.1721 7.34966 56.5666 7.95265C55.9608 8.55559 55.5777 9.36628 55.4173 10.3847H62.0354C61.9551 9.34177 61.6302 8.52494 61.0607 7.93423Z" fill="#1C2B33"/>
<path d="M67.9434 7.2931H65.4406V5.03209H67.9434V1.29235H70.5664V5.03209H74.3688V7.2931H70.5664V13.0249C70.5664 13.9781 70.727 14.6584 71.0478 15.0658C71.3684 15.4734 71.918 15.6771 72.6962 15.6769C73.041 15.6769 73.3338 15.6626 73.5747 15.6341C73.8153 15.6057 74.0801 15.567 74.3688 15.518V17.7545C74.0392 17.8513 73.7036 17.925 73.3641 17.9745C72.9756 18.0327 72.5834 18.0612 72.1909 18.0601C69.3591 18.0601 67.9432 16.4876 67.9434 13.3427V7.2931Z" fill="#1C2B33"/>
<path d="M88.0386 17.7787H85.4636V15.9943C85.0063 16.6625 84.4248 17.1778 83.7189 17.5403C83.0129 17.9028 82.2107 18.0841 81.3123 18.0843C80.2054 18.0843 79.2246 17.797 78.3703 17.2225C77.5159 16.6482 76.8441 15.8579 76.3548 14.8517C75.8655 13.8454 75.6208 12.6945 75.6208 11.3991C75.6208 10.0955 75.8696 8.94259 76.3668 7.94032C76.8642 6.93828 77.552 6.15203 78.4305 5.5816C79.3089 5.01144 80.3176 4.72628 81.4567 4.72612C82.3149 4.72612 83.085 4.89521 83.767 5.23338C84.4396 5.56387 85.0222 6.05694 85.4636 6.66934V5.03172H88.0386V17.7787ZM85.4154 9.49255C85.1346 8.76739 84.6913 8.19499 84.0859 7.77534C83.48 7.35578 82.7801 7.14601 81.9862 7.14601C80.863 7.14601 79.9685 7.52892 79.3029 8.29478C78.6369 9.06068 78.304 10.0954 78.3041 11.3991C78.3041 12.711 78.625 13.7498 79.2667 14.5156C79.9083 15.2815 80.7788 15.6644 81.8779 15.6644C82.6879 15.6644 83.4099 15.4525 84.0437 15.0288C84.6772 14.6053 85.1346 14.035 85.4154 13.3178V9.49255Z" fill="#1C2B33"/>
<path d="M7.75972 0.089489C7.75113 0.089489 7.7426 0.0895198 7.73403 0.0895647L7.69897 3.03169C7.70699 3.0316 7.71501 3.03153 7.72305 3.03153H7.72307C9.62969 3.03153 11.1086 4.55842 14.323 10.0577L14.5189 10.3925L14.5317 10.4144L16.3311 7.67224L16.3186 7.65106C15.8952 6.95153 15.4884 6.30791 15.0982 5.72022C14.6457 5.03928 14.213 4.43096 13.793 3.88786C11.6666 1.13791 9.88785 0.089489 7.75972 0.089489Z" fill="url(#paint0_linear_169_158)"/>
<path d="M7.73378 0.0895647C5.59532 0.100739 3.70477 1.50524 2.33962 3.65443C2.33562 3.66072 2.33162 3.66702 2.32764 3.67334L4.83351 5.05865C4.83758 5.05238 4.84165 5.04612 4.84574 5.03987C5.64291 3.82081 6.63495 3.04328 7.69872 3.03169C7.70674 3.0316 7.71476 3.03153 7.7228 3.03153L7.75946 0.089489C7.75088 0.089489 7.74235 0.0895198 7.73378 0.0895647Z" fill="url(#paint1_linear_169_158)"/>
<path d="M2.33947 3.65614C2.33548 3.66242 2.33148 3.66872 2.32748 3.67504C1.43043 5.09334 0.761709 6.8338 0.40031 8.7114C0.398745 8.71953 0.397185 8.72766 0.39563 8.73581L3.21087 9.41049C3.21235 9.40234 3.21383 9.39417 3.21531 9.38603C3.51624 7.73592 4.08914 6.2055 4.83335 5.06035C4.83741 5.05408 4.8415 5.04782 4.84558 5.04157L2.33947 3.65614Z" fill="url(#paint2_linear_169_158)"/>
<path d="M3.21546 9.38698L0.40044 8.71235C0.398874 8.72048 0.397314 8.72863 0.39576 8.73675C0.198694 9.76937 0.0984374 10.8186 0.0963338 11.8704C0.0963172 11.8789 0.0963109 11.8875 0.0963144 11.8959L2.98347 12.1583C2.98324 12.1498 2.983 12.1413 2.9828 12.1328C2.98138 12.0717 2.98065 12.0099 2.98064 11.9473C2.98208 11.0967 3.05918 10.2479 3.21102 9.41143C3.21248 9.40329 3.21396 9.39514 3.21546 9.38698Z" fill="url(#paint3_linear_169_158)"/>
<path d="M3.07127 13.0691C3.01948 12.7668 2.99014 12.461 2.98347 12.1542C2.98324 12.1457 2.983 12.1373 2.9828 12.1287L0.0963338 11.8664C0.0963172 11.8749 0.0963109 11.8834 0.0963144 11.8919V11.8935C0.0963144 12.5482 0.150062 13.1611 0.254519 13.7273C0.25603 13.7355 0.257516 13.7435 0.259048 13.7517L3.07564 13.0936C3.07416 13.0855 3.07272 13.0773 3.07127 13.0691Z" fill="url(#paint4_linear_169_158)"/>
<path d="M3.72892 14.5905C3.41476 14.2422 3.19242 13.7398 3.07552 13.0972C3.07404 13.0891 3.07261 13.0809 3.07117 13.0727L0.254395 13.7309C0.255903 13.7391 0.257389 13.7471 0.258923 13.7553C0.471824 14.8906 0.889362 15.8369 1.48731 16.5527C1.49263 16.559 1.49796 16.5654 1.50332 16.5718L3.74572 14.6088C3.74012 14.6028 3.73448 14.5966 3.72892 14.5905Z" fill="url(#paint5_linear_169_158)"/>
<path d="M12.0739 6.44999C10.3766 9.09435 9.3483 10.7529 9.3483 10.7529C7.08723 14.3529 6.30501 15.1598 5.04615 15.1598C4.52086 15.1598 4.08203 14.9698 3.74584 14.6067C3.74023 14.6006 3.73461 14.5945 3.72906 14.5883L1.48743 16.5505C1.49274 16.5569 1.49808 16.5632 1.50343 16.5696C2.32906 17.5471 3.49444 18.0895 4.93616 18.0895C7.11737 18.0895 8.68612 17.045 11.4749 12.0936C11.4749 12.0936 12.6375 10.0084 13.4372 8.57212C12.9418 7.75971 12.491 7.0564 12.0739 6.44999Z" fill="#0082FB"/>
<path d="M15.0993 2.27842C15.0936 2.2846 15.0878 2.2909 15.082 2.29709C14.6363 2.77944 14.2085 3.31811 13.7924 3.88963C14.2123 4.43276 14.6458 5.04225 15.0983 5.72318C15.6316 4.88714 16.1295 4.21002 16.6174 3.69103C16.6232 3.68489 16.6288 3.67891 16.6346 3.67279L15.0993 2.27842Z" fill="url(#paint6_linear_169_158)"/>
<path d="M23.34 2.01687C22.1562 0.802204 20.7449 0.089489 19.236 0.089489C17.6449 0.089489 16.3066 0.975064 15.0994 2.27609C15.0937 2.28225 15.0879 2.28855 15.0822 2.29475L16.6175 3.68868C16.6233 3.68254 16.6289 3.67656 16.6347 3.67046C17.4299 2.83032 18.1996 2.41085 19.0527 2.41085H19.0525C19.9709 2.41085 20.8305 2.84989 21.5749 3.61956C21.5807 3.62559 21.5865 3.63157 21.5924 3.63764L23.3577 2.03495C23.3518 2.02888 23.3459 2.02291 23.34 2.01687Z" fill="#0082FB"/>
<path d="M26.7621 11.4799C26.6958 7.57983 25.3522 4.09324 23.3577 2.03425C23.3517 2.02818 23.3459 2.0222 23.3399 2.01617L21.575 3.61886C21.5808 3.62489 21.5866 3.63087 21.5924 3.63694C23.0928 5.20237 24.122 8.11412 24.2156 11.479C24.2158 11.4875 24.2159 11.496 24.2163 11.5044L26.7625 11.5053C26.7625 11.4968 26.7623 11.4884 26.7621 11.4799Z" fill="url(#paint7_linear_169_158)"/>
<path d="M26.7625 11.508C26.7625 11.4995 26.7624 11.4911 26.7622 11.4826L24.2157 11.4818C24.2158 11.4902 24.216 11.4987 24.2164 11.5072C24.2204 11.6651 24.2225 11.824 24.2225 11.9838C24.2225 12.9013 24.0877 13.6429 23.8132 14.1783C23.8092 14.1863 23.805 14.1942 23.8009 14.2021L25.6995 16.2077C25.7042 16.2004 25.7088 16.1932 25.7136 16.1859C26.4028 15.1056 26.7646 13.605 26.7646 11.7852C26.7646 11.6926 26.7639 11.6002 26.7625 11.508Z" fill="url(#paint8_linear_169_158)"/>
<path d="M23.8133 14.1742C23.8092 14.1821 23.805 14.1901 23.801 14.198C23.5635 14.6493 23.2246 14.9503 22.7816 15.0819L23.6471 17.8525C23.7617 17.813 23.8732 17.7686 23.9818 17.7194C24.0142 17.7047 24.0465 17.6896 24.0784 17.6741C24.0967 17.6651 24.1151 17.6561 24.1332 17.6469C24.7056 17.3571 25.1892 16.9298 25.5804 16.3793C25.6043 16.3457 25.628 16.3117 25.6511 16.2772C25.6674 16.2529 25.6837 16.2284 25.6995 16.2036C25.7043 16.1963 25.7089 16.1891 25.7136 16.1818L23.8133 14.1742Z" fill="url(#paint9_linear_169_158)"/>
<path d="M22.2303 15.157C21.9402 15.157 21.684 15.1132 21.4334 14.9994L20.5471 17.8359C21.0452 18.0087 21.5767 18.0866 22.1693 18.0866C22.7152 18.0866 23.2163 18.0037 23.6707 17.8437L22.8054 15.0741C22.619 15.1309 22.4251 15.1588 22.2303 15.157Z" fill="url(#paint10_linear_169_158)"/>
<path d="M20.4569 14.19C20.4515 14.1836 20.446 14.1772 20.4403 14.1707L18.4011 16.3248C18.4069 16.331 18.4126 16.3372 18.4182 16.3434C19.1268 17.1103 19.8035 17.5861 20.5708 17.8472L21.4563 15.0128C21.1331 14.8717 20.8202 14.616 20.4569 14.19Z" fill="url(#paint11_linear_169_158)"/>
<path d="M20.4405 14.1686C19.8289 13.4461 19.0721 12.2432 17.882 10.298L16.3309 7.67054L16.3184 7.64936L14.5187 10.3908L14.5315 10.4127L15.6305 12.2905C16.6959 14.1012 17.5638 15.4112 18.4013 16.3227C18.4071 16.3289 18.4127 16.3351 18.4184 16.3412L20.4569 14.1879C20.4514 14.1815 20.446 14.1751 20.4405 14.1686Z" fill="url(#paint12_linear_169_158)"/>
</g>
<defs>
<linearGradient id="paint0_linear_169_158" x1="15.1351" y1="9.29923" x2="9.04311" y2="1.43993" gradientUnits="userSpaceOnUse">
<stop offset="0.0006" stop-color="#0867DF"/>
<stop offset="0.4539" stop-color="#0668E1"/>
<stop offset="0.8591" stop-color="#0064E0"/>
</linearGradient>
<linearGradient id="paint1_linear_169_158" x1="3.50469" y1="4.14879" x2="7.64664" y2="1.05283" gradientUnits="userSpaceOnUse">
<stop offset="0.1323" stop-color="#0064DF"/>
<stop offset="0.9988" stop-color="#0064E0"/>
</linearGradient>
<linearGradient id="paint2_linear_169_158" x1="1.76861" y1="8.78483" x2="3.45615" y2="4.60238" gradientUnits="userSpaceOnUse">
<stop offset="0.0147" stop-color="#0072EC"/>
<stop offset="0.6881" stop-color="#0064DF"/>
</linearGradient>
<linearGradient id="paint3_linear_169_158" x1="1.54564" y1="11.8202" x2="1.74171" y2="9.25536" gradientUnits="userSpaceOnUse">
<stop offset="0.0731" stop-color="#007CF6"/>
<stop offset="0.9943" stop-color="#0072EC"/>
</linearGradient>
<linearGradient id="paint4_linear_169_158" x1="1.65018" y1="13.2097" x2="1.50999" y2="12.1824" gradientUnits="userSpaceOnUse">
<stop offset="0.0731" stop-color="#007FF9"/>
<stop offset="1" stop-color="#007CF6"/>
</linearGradient>
<linearGradient id="paint5_linear_169_158" x1="1.57024" y1="13.4832" x2="2.43944" y2="15.2983" gradientUnits="userSpaceOnUse">
<stop offset="0.0731" stop-color="#007FF9"/>
<stop offset="1" stop-color="#0082FB"/>
</linearGradient>
<linearGradient id="paint6_linear_169_158" x1="14.5947" y1="4.65044" x2="15.738" y2="3.09362" gradientUnits="userSpaceOnUse">
<stop offset="0.2799" stop-color="#007FF8"/>
<stop offset="0.9141" stop-color="#0082FB"/>
</linearGradient>
<linearGradient id="paint7_linear_169_158" x1="23.1123" y1="2.6078" x2="25.5248" y2="11.3453" gradientUnits="userSpaceOnUse">
<stop stop-color="#0082FB"/>
<stop offset="0.9995" stop-color="#0081FA"/>
</linearGradient>
<linearGradient id="paint8_linear_169_158" x1="26.022" y1="11.702" x2="24.5013" y2="14.7275" gradientUnits="userSpaceOnUse">
<stop offset="0.0619" stop-color="#0081FA"/>
<stop offset="1" stop-color="#0080F9"/>
</linearGradient>
<linearGradient id="paint9_linear_169_158" x1="23.3599" y1="16.3562" x2="24.7601" y2="15.4173" gradientUnits="userSpaceOnUse">
<stop stop-color="#027AF3"/>
<stop offset="1" stop-color="#0080F9"/>
</linearGradient>
<linearGradient id="paint10_linear_169_158" x1="21.1854" y1="16.5431" x2="23.112" y2="16.5431" gradientUnits="userSpaceOnUse">
<stop stop-color="#0377EF"/>
<stop offset="0.9994" stop-color="#0279F1"/>
</linearGradient>
<linearGradient id="paint11_linear_169_158" x1="19.5102" y1="15.4685" x2="20.9063" y2="16.2771" gradientUnits="userSpaceOnUse">
<stop offset="0.0019" stop-color="#0471E9"/>
<stop offset="1" stop-color="#0377EF"/>
</linearGradient>
<linearGradient id="paint12_linear_169_158" x1="15.2852" y1="9.36328" x2="19.8071" y2="14.9609" gradientUnits="userSpaceOnUse">
<stop offset="0.2765" stop-color="#0867DF"/>
<stop offset="1" stop-color="#0471E9"/>
</linearGradient>
<clipPath id="clip0_169_158">
<rect width="89" height="18" fill="white"/>
</clipPath>
</defs>
</svg>
