<svg width="24" height="24" viewBox="0 0 24 24" fill="none" xmlns="http://www.w3.org/2000/svg">
<path d="M12.82 14.24C12.4231 14.3105 12.0169 14.3105 11.62 14.24C11.0354 14.124 10.4869 13.8703 10.02 13.5C9.9205 13.4165 9.79194 13.3759 9.66256 13.3872C9.53318 13.3984 9.41356 13.4606 9.32998 13.56L8.77998 14.14C8.73311 14.1865 8.69592 14.2418 8.67053 14.3027C8.64515 14.3636 8.63208 14.429 8.63208 14.495C8.63208 14.561 8.64515 14.6264 8.67053 14.6873C8.69592 14.7482 8.73311 14.8035 8.77998 14.85C9.06723 15.1457 9.40614 15.3863 9.77998 15.56C10.343 15.8373 10.9541 16.0037 11.58 16.05V17.27H12.78V16.02C13.5468 16.0052 14.2851 15.7262 14.87 15.23C15.1228 14.9991 15.3219 14.7156 15.4532 14.3994C15.5846 14.0832 15.6449 13.742 15.63 13.4C15.6562 13.0078 15.5774 12.6157 15.4016 12.2642C15.2258 11.9126 14.9595 11.6143 14.63 11.4C14.3586 11.2181 14.0621 11.0766 13.75 10.98C13.4951 10.8948 13.2344 10.8279 12.97 10.78H12.79L11.59 10.56C11.378 10.5244 11.1766 10.4424 11 10.32C10.9325 10.2641 10.8786 10.1938 10.8422 10.1141C10.8058 10.0344 10.788 9.94755 10.79 9.85999C10.79 9.46999 11.25 9.21999 11.59 9.14999C11.9864 9.07456 12.3935 9.07456 12.79 9.14999C13.2449 9.28363 13.6649 9.51579 14.02 9.82999C14.1151 9.92224 14.2425 9.97383 14.375 9.97383C14.5075 9.97383 14.6348 9.92224 14.73 9.82999L15.25 9.27999C15.3386 9.187 15.3881 9.06346 15.3881 8.93499C15.3881 8.80652 15.3386 8.68298 15.25 8.58999C14.9898 8.33041 14.6974 8.10525 14.38 7.91999C13.9114 7.65615 13.3944 7.48949 12.86 7.42999V6.17999H11.62V7.39999C10.8601 7.4284 10.1315 7.70998 9.54998 8.19999C9.2915 8.4252 9.08714 8.70579 8.95209 9.0209C8.81705 9.336 8.7548 9.67751 8.76998 10.02C8.76606 10.3884 8.85187 10.7522 9.01998 11.08C9.17777 11.3697 9.39604 11.6221 9.65998 11.82C9.91998 12.01 10.202 12.169 10.5 12.29C10.776 12.394 11.06 12.474 11.35 12.53H11.62L12.82 12.76C13.02 12.81 13.209 12.895 13.38 13.01C13.4553 13.0668 13.5157 13.1411 13.5558 13.2265C13.5959 13.3119 13.6145 13.4058 13.61 13.5C13.61 13.93 13.02 14.17 12.82 14.24V14.24Z" fill="white"/>
<path d="M12.3 2.02C10.9634 1.98256 9.63292 2.21356 8.38716 2.69931C7.1414 3.18507 6.0057 3.91573 5.04726 4.84807C4.08881 5.78041 3.32708 6.8955 2.80711 8.12737C2.28715 9.35925 2.01951 10.6829 2.02003 12.02H1.66003C1.55135 12.0111 1.44235 12.0329 1.34554 12.0831C1.24873 12.1333 1.16803 12.2098 1.11269 12.3037C1.05736 12.3977 1.02963 12.5054 1.0327 12.6144C1.03577 12.7234 1.0695 12.8293 1.13003 12.92L2.49003 14.79C2.55264 14.871 2.63296 14.9365 2.72484 14.9816C2.81671 15.0267 2.91769 15.0501 3.02003 15.0501C3.12237 15.0501 3.22336 15.0267 3.31523 14.9816C3.4071 14.9365 3.48742 14.871 3.55003 14.79L4.91003 12.92C4.97056 12.8293 5.0043 12.7234 5.00737 12.6144C5.01043 12.5054 4.98271 12.3977 4.92737 12.3037C4.87204 12.2098 4.79134 12.1333 4.69452 12.0831C4.59771 12.0329 4.48871 12.0111 4.38003 12.02H4.02003C4.02569 10.2081 4.64627 8.45175 5.78019 7.03849C6.91412 5.62523 8.49422 4.63876 10.2618 4.24056C12.0295 3.84235 13.8799 4.056 15.5103 4.84653C17.1407 5.63706 18.4544 6.95764 19.2365 8.59211C20.0185 10.2266 20.2226 12.0781 19.8152 13.8437C19.4078 15.6092 18.4131 17.1841 16.994 18.3107C15.5748 19.4373 13.8153 20.0487 12.0034 20.045C10.1915 20.0412 8.43448 19.4225 7.02003 18.29C6.82798 18.1404 6.58794 18.0659 6.34492 18.0807C6.1019 18.0954 5.87261 18.1983 5.70003 18.37C5.59842 18.4694 5.51917 18.5893 5.46756 18.7218C5.41595 18.8542 5.39317 18.9962 5.40074 19.1381C5.40831 19.28 5.44606 19.4187 5.51146 19.545C5.57687 19.6712 5.66842 19.782 5.78003 19.87C7.27229 21.0632 9.07515 21.804 10.9753 22.0046C12.8754 22.2052 14.7932 21.8572 16.5017 21.0019C18.2102 20.1466 19.638 18.8197 20.6159 17.1783C21.5939 15.5369 22.0811 13.6497 22.02 11.74C21.9189 9.19444 20.8624 6.78043 19.061 4.97903C17.2596 3.17763 14.8456 2.12111 12.3 2.02V2.02Z" fill="white"/>
</svg>
