<svg width="24" height="24" viewBox="0 0 24 24" fill="none" xmlns="http://www.w3.org/2000/svg">
<path fill-rule="evenodd" clip-rule="evenodd" d="M5.67005 12.739C4.51605 9.21399 4.55905 6.41999 4.63005 5.37899C5.46005 4.90499 7.82805 3.79999 11.975 3.79999C16.167 3.79999 18.541 4.92799 19.345 5.39499C19.446 6.31099 19.547 8.86699 18.28 12.739C17.006 16.632 13.388 19.241 12.001 20.119C10.9424 19.3867 9.94634 18.5679 9.02305 17.671C7.62705 16.306 6.27905 14.6 5.67005 12.739ZM11.975 1.79999C6.88505 1.79999 4.09705 3.32999 3.30205 3.84799C3.1238 3.9639 2.97398 4.1185 2.86369 4.30028C2.75341 4.48206 2.68552 4.68636 2.66505 4.89799C2.57505 5.79299 2.37505 9.10299 3.76905 13.361C4.52305 15.664 6.13005 17.641 7.62505 19.101C8.72046 20.1668 9.91109 21.1301 11.182 21.979C11.4115 22.131 11.6792 22.2151 11.9543 22.2215C12.2295 22.2279 12.5008 22.1563 12.737 22.015C13.853 21.348 18.557 18.319 20.18 13.361C21.711 8.68399 21.421 5.67299 21.286 4.81899C21.256 4.62541 21.1856 4.4403 21.0795 4.27562C20.9734 4.11094 20.8339 3.97037 20.67 3.86299C19.906 3.35999 17.113 1.79999 11.975 1.79999ZM9.58505 11.481C9.14405 10.102 9.08905 8.96799 9.10205 8.36899C9.57805 8.14199 10.552 7.79999 12.088 7.79999C13.648 7.79999 14.627 8.15199 15.096 8.37899C15.118 8.91399 15.072 9.97799 14.591 11.481C14.115 12.966 12.861 14.056 12.111 14.593C11.6916 14.2742 11.2968 13.9242 10.93 13.546C10.339 12.932 9.82205 12.22 9.58505 11.481ZM12.088 5.79999C9.74305 5.79999 8.34405 6.46699 7.78405 6.80899C7.5957 6.92419 7.4375 7.0826 7.32255 7.27111C7.2076 7.45962 7.13921 7.67279 7.12305 7.89299C7.07605 8.49499 7.03905 10.09 7.68105 12.092C8.04905 13.242 8.79605 14.214 9.48905 14.933C10.19 15.662 10.897 16.193 11.27 16.454C11.5045 16.6193 11.783 16.7108 12.0699 16.7169C12.3567 16.7229 12.6388 16.6432 12.88 16.488C13.593 16.029 15.719 14.516 16.495 12.092C17.195 9.90499 17.13 8.41599 17.056 7.82399C17.0311 7.62002 16.9606 7.42426 16.8498 7.25117C16.739 7.07809 16.5908 6.9321 16.416 6.82399C15.875 6.48699 14.47 5.79999 12.089 5.79999H12.088Z" fill="#344854"/>
</svg>
